<svg width="32" height="32" viewBox="0 0 32 32" fill="none" xmlns="http://www.w3.org/2000/svg">
<path fill-rule="evenodd" clip-rule="evenodd" d="M8.37933 14C6.72365 16.8677 4.39275 20.2281 2.35791 23.0214C2.97333 24.8388 3.9417 26.4933 5.18141 27.9035C8.61697 27.5381 12.6905 27.2 16.0004 27.2C19.3102 27.2 23.3837 27.5381 26.8192 27.9035C28.059 26.4933 29.0273 24.8387 29.6427 23.0213C27.6079 20.228 25.277 16.8677 23.6214 14C21.966 11.1327 20.2215 7.43453 18.8199 4.27593C17.9081 4.09492 16.9653 4 16.0003 4C15.0354 4 14.0926 4.09491 13.1808 4.27591C11.7793 7.43449 10.0348 11.1327 8.37933 14ZM7.08643 22.1607L8.28643 24.2392C13.0598 21.4833 18.9408 21.4833 23.7141 24.2392L24.9141 22.1607C20.1408 19.4049 17.2003 14.3118 17.2003 8.8H14.8003C14.8003 14.3118 11.8598 19.4049 7.08643 22.1607Z" fill="url(#paint0_linear_91_208)"/>
<defs>
<linearGradient id="paint0_linear_91_208" x1="2.57107" y1="15.9518" x2="29.6427" y2="15.9518" gradientUnits="userSpaceOnUse">
<stop stop-color="#14A356"/>
<stop offset="1" stop-color="#00A383"/>
</linearGradient>
</defs>
</svg>
